<svg width="222" height="703" viewBox="0 0 222 703" fill="none" xmlns="http://www.w3.org/2000/svg">
<path d="M157 29.3993L225.673 -0.000488281L232.446 15.8211L163.773 45.2209L157 29.3993Z" fill="#7F8CFF"/>
<path d="M259.207 50.4102C255.738 44.3223 250.869 39.1275 244.993 35.2466C239.117 31.3656 232.4 28.9076 225.384 28.0715C218.369 27.2355 211.253 28.0449 204.613 30.4342C197.973 32.8235 191.995 36.7255 187.163 41.8244C182.332 46.9232 178.782 53.0756 176.803 59.7832C174.823 66.4909 174.468 73.5654 175.767 80.4338C177.066 87.3023 179.983 93.7716 184.281 99.3181C188.579 104.865 194.137 109.332 200.505 112.359L208.894 95.101C205.266 93.3765 202.099 90.8313 199.651 87.6715C197.202 84.5117 195.541 80.8261 194.801 76.9131C194.06 73.0002 194.263 68.9698 195.39 65.1485C196.518 61.3271 198.54 57.8222 201.293 54.9173C204.046 52.0125 207.451 49.7895 211.234 48.4284C215.017 47.0672 219.071 46.6061 223.067 47.0824C227.064 47.5587 230.891 48.959 234.239 51.17C237.586 53.3809 240.36 56.3404 242.336 59.8087L259.207 50.4102Z" fill="white"/>
<path d="M21 44.4999C21 50.2989 16.299 54.9999 10.5 54.9999C4.70101 54.9999 0 50.2989 0 44.4999C0 38.7009 4.70101 33.9999 10.5 33.9999C16.299 33.9999 21 38.7009 21 44.4999Z" fill="#7F8CFF"/>
<path d="M105.804 653.889L166.848 699.455L175 688.534L113.956 642.968L105.804 653.889Z" fill="#7F8CFF"/>
<path d="M132.445 698.948C125.967 704.591 116.141 703.914 110.498 697.435C104.856 690.957 105.533 681.132 112.011 675.489C118.489 669.847 128.315 670.524 133.958 677.002C139.6 683.48 138.923 693.306 132.445 698.948Z" fill="white"/>
</svg>
